<?xml version="1.0" encoding="utf-8"?>
<!-- Generator: Adobe Illustrator 25.0.0, SVG Export Plug-In . SVG Version: 6.00 Build 0)  -->
<svg version="1.1" id="Layer_1" xmlns="http://www.w3.org/2000/svg" xmlns:xlink="http://www.w3.org/1999/xlink" x="0px" y="0px"
	 viewBox="0 0 1351 742" style="enable-background:new 0 0 1351 742;" xml:space="preserve">
<style type="text/css">
	.st0{fill:#1948CB;}
</style>
<g>
	<g>
		<path class="st0" d="M305.47,222.63L212.08,75.8v113.94l21.14,9.69v23.2h-81.93v-23.2l21.44-9.69V53.18l-21.44-9.69V20h73.42
			l86.04,136.56V53.18l-21.14-9.69V20h81.64v23.49l-21.14,9.69v169.45H305.47z"/>
		<path class="st0" d="M506.63,211.47c-12.63,7.64-34.65,14.39-59.03,14.39c-48.75,0-78.41-30.54-78.41-76.65
			c0-46.99,30.83-79.58,74.89-79.58c32.3,0,63.14,17.62,63.14,69.01v19.68h-90.45c2.35,23.79,15.86,34.65,37,34.65
			c16.15,0,33.48-5.87,40.82-9.69L506.63,211.47z M464.93,132.77c-0.29-20.85-8.52-32.6-22.32-32.6c-14.39,0-24.08,12.92-25.84,32.6
			H464.93z"/>
		<path class="st0" d="M597.96,222.63v-23.2l10.28-5.29l-15.27-23.49l-14.39,23.49l9.69,5.29v23.2h-71.95v-23.2l19.97-9.1
			l31.13-44.64l-27.9-40.53l-20.85-7.93V72.86h71.95v24.37l-7.64,4.99l12.04,19.09l11.75-19.09l-8.22-4.99V72.86h70.48v24.37
			l-21.15,7.93l-27.6,39.94l32.3,45.23l18.5,9.1v23.2H597.96z"/>
		<path class="st0" d="M785.9,217.34c-10.57,4.41-19.97,7.34-37.3,7.34c-27.9,0-46.99-12.33-46.99-46.99v-72.54h-20.56V81.38
			c20.85-7.05,25.84-17.03,39.35-44.05h27.02v35.53h37.3v32.3h-37.3v64.9c0,13.51,3.23,22.32,15.86,22.32
			c4.41,0,11.45-1.17,15.86-2.35L785.9,217.34z"/>
		<path class="st0" d="M152.17,458v-23.2l21.44-9.69V288.55l-21.44-9.69v-23.49h91.04c49.04,0,75.77,12.63,75.77,51.39
			c0,24.96-15.86,37.59-36.71,44.05v1.17c25.26,4.99,41.41,19.68,41.41,46.11c0,41.99-31.42,59.91-81.93,59.91H152.17z
			 M237.93,339.06c23.2,0,34.36-8.81,34.36-26.73c0-17.03-10.28-24.67-28.19-24.67h-23.2v51.39H237.93z M238.81,425.69
			c22.32,0,37.3-7.93,37.3-29.37c0-22.61-15.86-28.19-37.3-28.19h-17.91v57.56H238.81z"/>
		<path class="st0" d="M336.3,458v-23.2l17.91-9.1v-81.05l-17.91-6.75v-22.32L383.87,305h14.1l2.06,1.47v119.23l17.91,9.1V458H336.3
			z M377.12,290.9c-15.27,0-25.84-9.98-25.84-24.08c0-14.09,10.57-24.08,25.84-24.08c15.56,0,25.84,9.98,25.84,24.08
			C402.96,280.91,392.68,290.9,377.12,290.9z"/>
		<path class="st0" d="M531,429.22c30.25,0.88,47.28,18.21,47.28,41.41c0,33.48-34.07,56.38-83.4,56.38
			c-42.58,0-73.42-16.74-73.42-42.58c0-16.74,12.04-27.9,26.43-32.89c-7.05-5.28-10.28-12.92-10.28-20.56
			c0-9.4,5.58-20.56,16.74-29.07c-12.33-9.11-20.56-23.2-20.56-41.7c0-34.36,25.84-55.21,63.73-55.21c8.81,0,16.74,1.17,23.79,3.23
			h59.32v32.3h-23.79c2.94,5.87,4.4,12.63,4.4,19.68c0,33.48-27.6,54.62-63.73,54.62c-5.87,0-11.75-0.88-17.33-2.64
			c-2.64,2.94-3.52,5.87-3.52,8.52c0,6.46,5.29,7.34,17.33,7.63L531,429.22z M478.14,462.99c-2.06-0.3-4.11-0.3-5.87-0.88
			c-7.05,3.52-11.16,9.4-11.16,16.45c0,10.28,15.86,18.5,36.71,18.5c20.56,0,38.47-7.93,38.47-20.85c0-7.05-5.58-11.16-14.68-11.75
			L478.14,462.99z M518.96,361.09c0-15.27-9.1-24.37-21.44-24.37c-12.33,0-21.73,8.81-21.73,24.37c0,15.27,9.4,24.96,21.73,24.96
			C509.56,386.05,518.96,376.36,518.96,361.09z"/>
		<path class="st0" d="M640.48,458v-23.2l23.49-9.69V288.55l-23.49-9.69v-23.49h93.97v23.49l-23.2,9.69V425.1l23.2,9.69V458H640.48z
			"/>
		<path class="st0" d="M911.24,452.71c-16.15,5.29-29.37,7.93-48.46,7.93c-2.94,0-5.87,0-8.81-0.3l-2.64-15.27
			c-10.28,8.81-23.2,16.15-41.99,16.15c-39.94,0-64.61-34.95-64.61-75.18c0-46.69,29.95-81.05,74.3-81.05
			c10.87,0,22.03,3.82,29.66,7.93v-37l-24.08-5.58v-22.32L876,236.57h18.5v189.71l16.74,5.58V452.71z M848.69,341.7
			c-5.29-2.64-13.8-4.99-21.44-4.99c-21.14,0-34.95,16.44-34.95,47.87c0,28.78,14.68,44.34,33.48,44.34
			c10.28,0,18.21-3.82,22.91-7.05V341.7z"/>
		<path class="st0" d="M1058.95,446.84c-12.63,7.64-34.65,14.39-59.03,14.39c-48.75,0-78.41-30.54-78.41-76.65
			c0-46.99,30.83-79.58,74.89-79.58c32.3,0,63.14,17.62,63.14,69.01v19.68h-90.45c2.35,23.79,15.86,34.65,37,34.65
			c16.15,0,33.48-5.87,40.82-9.69L1058.95,446.84z M1017.25,368.13c-0.29-20.85-8.52-32.6-22.32-32.6
			c-14.39,0-24.08,12.92-25.84,32.6H1017.25z"/>
		<path class="st0" d="M1219,452.71c-15.56,5.29-27.6,7.93-45.52,7.93c-1.76,0-3.23,0-4.99-0.3l-2.94-2.35l-1.76-12.04
			c-9.69,7.64-26.14,15.27-42.58,15.27c-26.43,0-47.87-15.27-47.87-45.23c0-33.48,20.26-50.51,71.36-50.51
			c3.52,0,10.87,0.29,14.39,0.59v-9.1c0-13.51-6.46-20.56-21.73-20.56c-4.11,0-11.75,0.59-15.27,1.47l-4.99,15.27h-34.65v-37.88
			c17.03-6.17,47.87-10.57,65.19-10.57c37.3,0,57.27,17.91,57.27,54.03v68.72l14.1,5.58V452.71z M1159.09,391.63
			c-2.64-0.29-10.57-0.88-13.51-0.88c-20.26,0.59-27.6,7.34-27.6,21.73c0,12.33,8.81,19.38,19.38,19.38c7.34,0,16.74-2.06,21.73-4.7
			V391.63z"/>
		<path class="st0" d="M299.6,655.91h17.03v41.99c-14.1,8.51-37.3,14.09-61.67,14.09c-57.26,0-101.9-43.17-101.9-104.84
			c0-63.14,47.57-104.84,102.49-104.84c19.97,0,41.41,4.41,60.2,13.51v38.47h-16.74l-7.05-25.84c-10.28-3.82-22.61-6.75-37-6.75
			c-44.64,0-75.18,37.3-75.18,85.46c0,50.51,32.89,85.46,76.94,85.46c13.8,0,25.55-1.76,35.53-5.29L299.6,655.91z"/>
		<path class="st0" d="M339.82,708.48v-13.51l22.91-5.87V511.72l-22.91-4.11v-12.34l39.06-8.22h8.81V689.1l22.91,5.87v13.51H339.82z
			"/>
		<path class="st0" d="M548.62,711.71h-8.81v-20.85c-12.63,9.69-29.95,21.14-51.39,21.14c-22.32,0-43.76-12.33-43.76-49.04v-83.11
			l-22.91-4.11V563.4l39.06-8.22h7.05l1.76,1.76v107.19c0,18.79,10.87,27.02,27.31,27.02c14.68,0,29.66-8.81,42.88-19.38v-91.92
			l-22.91-4.11V563.4l39.06-8.22h7.05l1.76,1.76v131.27l22.91,4.11v11.16L548.62,711.71z"/>
		<path class="st0" d="M617.04,700.84V511.72l-22.91-4.11v-12.34l39.06-8.22H642v84.58c7.93-5.87,25.26-16.44,45.81-16.44
			c35.53,0,62.55,24.67,62.55,69.6c0,54.03-34.36,87.22-81.93,87.22c-12.63,0-37.88-3.82-48.16-7.63L617.04,700.84z M642,686.45
			c5.29,2.35,17.33,6.17,29.07,6.17c31.13,0,53.74-26.72,53.74-65.19c0-35.83-19.97-51.98-42.29-51.98
			c-16.74,0-33.77,9.69-40.53,14.1V686.45z"/>
	</g>
</g>
</svg>
